<svg width="31" height="32" viewBox="0 0 31 32" fill="none" xmlns="http://www.w3.org/2000/svg">
<path fill-rule="evenodd" clip-rule="evenodd" d="M22.2863 12.3581C22.7723 12.7347 22.8611 13.4341 22.4844 13.9201L18.1362 19.532C17.9546 19.7665 17.6869 19.9187 17.3926 19.9551C17.0983 19.9914 16.8016 19.9089 16.5684 19.7257L12.3844 16.439L8.62683 21.3227C8.25186 21.81 7.55282 21.9011 7.06548 21.5262C6.57813 21.1512 6.48703 20.4522 6.862 19.9648L11.3053 14.1898C11.4866 13.9543 11.7545 13.801 12.0494 13.764C12.3443 13.7271 12.6418 13.8096 12.8755 13.9932L17.0625 17.2822L20.7242 12.5563C21.1008 12.0702 21.8002 11.9815 22.2863 12.3581Z" fill="#8E8E93"/>
<path fill-rule="evenodd" clip-rule="evenodd" d="M26.6727 3.19571C25.7117 3.19571 24.9326 3.97479 24.9326 4.93584C24.9326 5.89689 25.7117 6.67597 26.6727 6.67597C27.6338 6.67597 28.4128 5.89689 28.4128 4.93584C28.4128 3.97479 27.6338 3.19571 26.6727 3.19571ZM22.7058 4.93584C22.7058 2.74499 24.4818 0.968948 26.6727 0.968948C28.8636 0.968948 30.6396 2.74499 30.6396 4.93584C30.6396 7.12669 28.8636 8.90273 26.6727 8.90273C24.4818 8.90273 22.7058 7.12669 22.7058 4.93584Z" fill="#8E8E93"/>
<path fill-rule="evenodd" clip-rule="evenodd" d="M2.24168 4.71734C3.72596 3.11625 5.84425 2.21906 8.35586 2.21906H19.1449C19.7598 2.21906 20.2582 2.71753 20.2582 3.33243C20.2582 3.94734 19.7598 4.44581 19.1449 4.44581H8.35586C6.39698 4.44581 4.89402 5.13164 3.87468 6.2312C2.84651 7.34028 2.22676 8.96216 2.22676 10.969V22.9673C2.22676 24.9797 2.83617 26.5968 3.8554 27.6995C4.86483 28.7915 6.36532 29.4769 8.35586 29.4769H21.1287C23.0891 29.4769 24.5921 28.7934 25.6109 27.6973C26.6382 26.5919 27.2578 24.974 27.2578 22.9673V12.518C27.2578 11.9031 27.7563 11.4046 28.3712 11.4046C28.9861 11.4046 29.4846 11.9031 29.4846 12.518V22.9673C29.4846 25.4311 28.7182 27.6247 27.242 29.2132C25.7571 30.8109 23.6389 31.7037 21.1287 31.7037H8.35586C5.82155 31.7037 3.7008 30.8128 2.2202 29.211C0.749401 27.6198 0 25.4254 0 22.9673V10.969C0 8.50529 0.766236 6.3089 2.24168 4.71734Z" fill="#8E8E93"/>
</svg>
