<svg width="30" height="30" viewBox="0 0 30 30" fill="none" xmlns="http://www.w3.org/2000/svg">
<path d="M22.77 3.61498C22.77 1.61999 24.39 0 26.385 0C28.38 0 30 1.61999 30 3.61498C30 5.60997 28.38 7.22996 26.385 7.22996C24.39 7.22996 22.77 5.60997 22.77 3.61498Z" fill="#1C1C1E"/>
<path fill-rule="evenodd" clip-rule="evenodd" d="M20.1749 2.67044C20.1149 3.04543 20.0849 3.42043 20.0849 3.79543C20.0849 7.17041 22.8149 9.8989 26.1749 9.8989C26.5499 9.8989 26.9099 9.8554 27.2849 9.7954V21.8988C27.2849 26.9853 24.2849 30.0003 19.1849 30.0003H8.10146C2.99998 30.0003 0 26.9853 0 21.8988V10.8004C0 5.70042 2.99998 2.67044 8.10146 2.67044H20.1749ZM16.9949 19.1389L21.3299 13.5454L21.2699 13.5754C21.5099 13.2454 21.5549 12.8254 21.3899 12.4504C21.2264 12.0754 20.8649 11.8204 20.4764 11.7904C20.0699 11.7454 19.6664 11.9254 19.4249 12.2554L15.7964 16.9504L11.6399 13.6804C11.3849 13.4854 11.0849 13.4089 10.7849 13.4404C10.4864 13.4854 10.2164 13.6489 10.0349 13.8889L5.59647 19.6654L5.50497 19.8003C5.24997 20.2788 5.36997 20.8938 5.81997 21.2253C6.02997 21.3603 6.25497 21.4503 6.50997 21.4503C6.85647 21.4653 7.18496 21.2838 7.39496 21.0003L11.1599 16.1539L15.4349 19.3654L15.5699 19.4539C16.0499 19.7088 16.6499 19.5904 16.9949 19.1389Z" fill="#1C1C1E"/>
</svg>
