<svg width="31" height="27" viewBox="0 0 31 27" fill="none" xmlns="http://www.w3.org/2000/svg">
<path fill-rule="evenodd" clip-rule="evenodd" d="M0 7.125C0 3.18997 3.18997 0 7.125 0H19.125C23.06 0 26.25 3.18997 26.25 7.125C26.25 7.74632 25.7463 8.25 25.125 8.25C24.5037 8.25 24 7.74632 24 7.125C24 4.43261 21.8174 2.25 19.125 2.25H12.3212C13.5174 3.52448 14.25 5.23918 14.25 7.125V19.125C14.25 21.0108 13.5174 22.7255 12.3212 24H19.125C21.8174 24 24 21.8174 24 19.125C24 18.5037 24.5037 18 25.125 18C25.7463 18 26.25 18.5037 26.25 19.125C26.25 23.06 23.06 26.25 19.125 26.25H7.125C3.18997 26.25 0 23.06 0 19.125V7.125ZM7.125 24C9.81739 24 12 21.8174 12 19.125V7.125C12 4.43261 9.81739 2.25 7.125 2.25C4.43261 2.25 2.25 4.43261 2.25 7.125V19.125C2.25 21.8174 4.43261 24 7.125 24ZM16.5 13.125C16.5 12.5037 17.0037 12 17.625 12H29.625C30.2463 12 30.75 12.5037 30.75 13.125C30.75 13.7463 30.2463 14.25 29.625 14.25H17.625C17.0037 14.25 16.5 13.7463 16.5 13.125Z" fill="#8E8E93"/>
</svg>
