<svg width="29" height="29" viewBox="0 0 29 29" fill="none" xmlns="http://www.w3.org/2000/svg">
<path fill-rule="evenodd" clip-rule="evenodd" d="M29 14.5C29 18.8694 27.0674 22.7874 24.0103 25.4458C21.4644 27.6597 18.1387 29 14.5 29C10.8613 29 7.53556 27.6597 4.98969 25.4458C1.93263 22.7874 0 18.8694 0 14.5C0 6.49187 6.49187 0 14.5 0C22.5081 0 29 6.49187 29 14.5ZM14.5 24.65C17.0472 24.65 19.3751 23.7118 21.1572 22.1621C21.3624 21.9837 21.5603 21.7971 21.7505 21.603C20.1832 19.068 17.5208 17.4 14.5 17.4C11.4793 17.4 8.81687 19.068 7.24956 21.603C7.43974 21.7971 7.63766 21.9837 7.84282 22.1621C9.62492 23.7118 11.9529 24.65 14.5 24.65ZM14.5 14.5C16.9024 14.5 18.85 12.5524 18.85 10.15C18.85 7.74756 16.9024 5.8 14.5 5.8C12.0976 5.8 10.15 7.74756 10.15 10.15C10.15 12.5524 12.0976 14.5 14.5 14.5Z" fill="#1C1C1E"/>
</svg>
