<svg width="34" height="34" viewBox="0 0 34 34" fill="none" xmlns="http://www.w3.org/2000/svg">
<path fill-rule="evenodd" clip-rule="evenodd" d="M17 3.125C9.33705 3.125 3.125 9.33705 3.125 17C3.125 20.6319 4.51936 23.9371 6.80445 26.4111C8.78009 22.8146 12.6041 20.375 17 20.375C21.396 20.375 25.2199 22.8146 27.1955 26.4111C29.4806 23.9371 30.875 20.6319 30.875 17C30.875 9.33705 24.663 3.125 17 3.125ZM25.4753 27.9866C23.9709 24.8155 20.74 22.625 17 22.625C13.26 22.625 10.0291 24.8155 8.52474 27.9866C10.8692 29.7981 13.8077 30.875 17 30.875C20.1923 30.875 23.1308 29.7981 25.4753 27.9866ZM0.875 17C0.875 8.09441 8.09441 0.875 17 0.875C25.9056 0.875 33.125 8.09441 33.125 17C33.125 21.8593 30.9742 26.2175 27.5765 29.1721C24.7459 31.6336 21.0457 33.125 17 33.125C12.9543 33.125 9.2541 31.6336 6.42353 29.1721C3.0258 26.2175 0.875 21.8593 0.875 17ZM17 9.125C15.136 9.125 13.625 10.636 13.625 12.5C13.625 14.364 15.136 15.875 17 15.875C18.864 15.875 20.375 14.364 20.375 12.5C20.375 10.636 18.864 9.125 17 9.125ZM11.375 12.5C11.375 9.3934 13.8934 6.875 17 6.875C20.1066 6.875 22.625 9.3934 22.625 12.5C22.625 15.6066 20.1066 18.125 17 18.125C13.8934 18.125 11.375 15.6066 11.375 12.5Z" fill="#8E8E93"/>
</svg>
